<svg width="18" height="18" viewBox="0 0 18 18" fill="none" xmlns="http://www.w3.org/2000/svg">
<path d="M16.875 1.13754C16.7593 1.02166 16.622 0.929722 16.4708 0.866995C16.3195 0.804268 16.1574 0.77198 15.9937 0.77198C15.83 0.77198 15.6679 0.804268 15.5167 0.866995C15.3655 0.929722 15.2281 1.02166 15.1125 1.13754L8.99997 7.23753L2.88747 1.12504C2.77175 1.00931 2.63436 0.917508 2.48315 0.854877C2.33195 0.792245 2.16989 0.76001 2.00622 0.76001C1.84256 0.76001 1.6805 0.792245 1.5293 0.854877C1.37809 0.917508 1.2407 1.00931 1.12497 1.12504C1.00925 1.24076 0.917447 1.37815 0.854815 1.52936C0.792184 1.68056 0.759949 1.84262 0.759949 2.00629C0.759949 2.16995 0.792184 2.33201 0.854815 2.48321C0.917447 2.63442 1.00925 2.77181 1.12497 2.88754L7.23747 9.00003L1.12497 15.1125C1.00925 15.2283 0.917447 15.3656 0.854815 15.5169C0.792184 15.6681 0.759949 15.8301 0.759949 15.9938C0.759949 16.1574 0.792184 16.3195 0.854815 16.4707C0.917447 16.6219 1.00925 16.7593 1.12497 16.875C1.2407 16.9908 1.37809 17.0826 1.5293 17.1452C1.6805 17.2078 1.84256 17.2401 2.00622 17.2401C2.16989 17.2401 2.33195 17.2078 2.48315 17.1452C2.63436 17.0826 2.77175 16.9908 2.88747 16.875L8.99997 10.7625L15.1125 16.875C15.2282 16.9908 15.3656 17.0826 15.5168 17.1452C15.668 17.2078 15.8301 17.2401 15.9937 17.2401C16.1574 17.2401 16.3194 17.2078 16.4707 17.1452C16.6219 17.0826 16.7592 16.9908 16.875 16.875C16.9907 16.7593 17.0825 16.6219 17.1451 16.4707C17.2078 16.3195 17.24 16.1574 17.24 15.9938C17.24 15.8301 17.2078 15.6681 17.1451 15.5169C17.0825 15.3656 16.9907 15.2283 16.875 15.1125L10.7625 9.00003L16.875 2.88754C17.35 2.41254 17.35 1.61254 16.875 1.13754Z" fill="#9E9E9E"/>
</svg>
