<svg width="40" height="41" viewBox="0 0 40 41" fill="none" xmlns="http://www.w3.org/2000/svg">
<path d="M24.1668 20.0833C25.3174 20.0833 26.2502 19.1506 26.2502 18C26.2502 16.8494 25.3174 15.9166 24.1668 15.9166C23.0162 15.9166 22.0835 16.8494 22.0835 18C22.0835 19.1506 23.0162 20.0833 24.1668 20.0833Z" fill="white"/>
<path d="M15.8333 20.0833C16.9839 20.0833 17.9167 19.1506 17.9167 18C17.9167 16.8494 16.9839 15.9166 15.8333 15.9166C14.6827 15.9166 13.75 16.8494 13.75 18C13.75 19.1506 14.6827 20.0833 15.8333 20.0833Z" fill="white"/>
<path d="M38.2332 19.4C38.0239 18.1698 37.4743 17.0228 36.6465 16.089C35.8188 15.1553 34.746 14.472 33.5498 14.1167C32.6719 12.2709 31.4304 10.6213 29.8998 9.26667C27.2665 6.91667 23.7998 5.5 19.9998 5.5C16.1998 5.5 12.7332 6.91667 10.0998 9.26667C8.5665 10.6167 7.3165 12.2667 6.44984 14.1167C5.25231 14.4695 4.17815 15.1521 3.35002 16.0863C2.52189 17.0205 1.97316 18.1688 1.7665 19.4C1.69984 19.75 1.6665 20.1167 1.6665 20.5C1.6665 20.8833 1.69984 21.25 1.7665 21.6C1.97575 22.8302 2.52539 23.9772 3.35314 24.911C4.18089 25.8447 5.25364 26.528 6.44984 26.8833C7.3164 28.7175 8.54689 30.3562 10.0665 31.7C12.6998 34.0667 16.1832 35.5 19.9998 35.5C23.8165 35.5 27.2998 34.0667 29.9498 31.7C31.4498 30.3667 32.6998 28.7167 33.5665 26.8833C34.7605 26.5271 35.8308 25.8432 36.6557 24.9093C37.4806 23.9754 38.0271 22.8289 38.2332 21.6C38.2998 21.25 38.3332 20.8833 38.3332 20.5C38.3332 20.1167 38.2998 19.75 38.2332 19.4ZM31.6665 23.8333C31.4998 23.8333 31.3498 23.8 31.1832 23.7833C30.8498 24.9 30.3665 25.9333 29.7498 26.8833C27.6665 30.0667 24.0832 32.1667 19.9998 32.1667C15.9165 32.1667 12.3332 30.0667 10.2498 26.8833C9.63317 25.9333 9.14984 24.9 8.8165 23.7833C8.64984 23.8 8.49984 23.8333 8.33317 23.8333C6.49984 23.8333 4.99984 22.3333 4.99984 20.5C4.99984 18.6667 6.49984 17.1667 8.33317 17.1667C8.49984 17.1667 8.64984 17.2 8.8165 17.2167C9.14984 16.1 9.63317 15.0667 10.2498 14.1167C12.3332 10.9333 15.9165 8.83333 19.9998 8.83333C24.0832 8.83333 27.6665 10.9333 29.7498 14.1167C30.3665 15.0667 30.8498 16.1 31.1832 17.2167C31.3498 17.2 31.4998 17.1667 31.6665 17.1667C33.4998 17.1667 34.9998 18.6667 34.9998 20.5C34.9998 22.3333 33.4998 23.8333 31.6665 23.8333ZM19.9998 28.8333C23.3498 28.8333 26.2332 26.7833 27.4998 23.8333H12.4998C13.7665 26.7833 16.6498 28.8333 19.9998 28.8333Z" fill="white"/>
</svg>
