<svg width="20" height="20" viewBox="0 0 20 20" fill="none" xmlns="http://www.w3.org/2000/svg">
<path d="M0.625 18.625C0.625 19.0398 0.960156 19.375 1.375 19.375H18.625C19.0398 19.375 19.375 19.0398 19.375 18.625V8.78125H0.625V18.625ZM18.625 2.3125H14.6875V0.8125C14.6875 0.709375 14.6031 0.625 14.5 0.625H13.1875C13.0844 0.625 13 0.709375 13 0.8125V2.3125H7V0.8125C7 0.709375 6.91563 0.625 6.8125 0.625H5.5C5.39687 0.625 5.3125 0.709375 5.3125 0.8125V2.3125H1.375C0.960156 2.3125 0.625 2.64766 0.625 3.0625V7.1875H19.375V3.0625C19.375 2.64766 19.0398 2.3125 18.625 2.3125Z" fill="#BDBDBD"/>
</svg>
