<svg width="21" height="15" viewBox="0 0 21 15" fill="none" xmlns="http://www.w3.org/2000/svg">
<path d="M16.3291 14.1865C16.5635 14.4136 16.9224 14.4282 17.1567 14.1865C17.3984 13.9375 17.3838 13.5859 17.1567 13.3589L4.74951 0.966309C4.52979 0.739258 4.14893 0.731934 3.92188 0.966309C3.70215 1.18604 3.70215 1.56689 3.92188 1.78662L16.3291 14.1865ZM10.5576 1.38379C9.2832 1.38379 8.12598 1.60352 7.04932 1.95508L8.22119 3.12695C8.96094 2.91455 9.72998 2.79004 10.5576 2.79004C15.2378 2.79004 18.9585 6.8623 18.9585 7.71924C18.9585 8.29785 17.772 9.79199 15.8896 10.9712L16.9736 12.0625C19.2734 10.5537 20.6138 8.5835 20.6138 7.71924C20.6138 6.21777 16.5635 1.38379 10.5576 1.38379ZM10.5576 14.062C11.9126 14.062 13.1504 13.8276 14.271 13.4395L13.1064 12.2749C12.3081 12.5093 11.4658 12.6558 10.5576 12.6558C5.87744 12.6558 2.15674 8.74463 2.15674 7.71924C2.15674 7.22852 3.40186 5.63916 5.40869 4.40869L4.30273 3.30273C1.90771 4.82617 0.494141 6.84033 0.494141 7.71924C0.494141 9.2207 4.63232 14.062 10.5576 14.062ZM14.2124 9.13281C14.4028 8.70068 14.5127 8.21729 14.5127 7.71924C14.5127 5.51465 12.7549 3.77881 10.5576 3.77881C10.0522 3.77881 9.57617 3.87402 9.13672 4.05713L14.2124 9.13281ZM10.5576 11.667C11.1289 11.667 11.6636 11.5352 12.1396 11.3081L6.96143 6.12256C6.72705 6.60596 6.59521 7.14062 6.59521 7.72656C6.60254 9.87256 8.35303 11.667 10.5576 11.667Z" fill="#CDCDCD"/>
</svg>
