<svg width="21" height="14" viewBox="0 0 21 14" fill="none" xmlns="http://www.w3.org/2000/svg">
<path d="M10.5576 13.062C16.5635 13.062 20.6138 8.2207 20.6138 6.71924C20.6138 5.21777 16.5562 0.383789 10.5576 0.383789C4.63965 0.383789 0.494141 5.21777 0.494141 6.71924C0.494141 8.2207 4.63232 13.062 10.5576 13.062ZM10.5576 11.6558C5.87744 11.6558 2.15674 7.74463 2.15674 6.71924C2.15674 5.8623 5.87744 1.79004 10.5576 1.79004C15.2305 1.79004 18.9585 5.8623 18.9585 6.71924C18.9585 7.74463 15.2305 11.6558 10.5576 11.6558ZM10.5576 10.667C12.7549 10.667 14.5127 8.87256 14.5127 6.71924C14.5127 4.51465 12.7549 2.77881 10.5576 2.77881C8.35303 2.77881 6.58789 4.51465 6.59521 6.71924C6.60986 8.87256 8.35303 10.667 10.5576 10.667ZM10.5576 7.99365C9.84717 7.99365 9.26855 7.42236 9.26855 6.71924C9.26855 6.01611 9.84717 5.44482 10.5576 5.44482C11.2681 5.44482 11.8394 6.01611 11.8394 6.71924C11.8394 7.42236 11.2681 7.99365 10.5576 7.99365Z" fill="#CDCDCD"/>
</svg>
