<svg width="24" height="27" viewBox="0 0 24 27" fill="none" xmlns="http://www.w3.org/2000/svg">
<path d="M13.374 1.04671C12.603 0.317765 11.397 0.317765 10.626 1.04671L0.93896 10.2054C0.3396 10.7721 0 11.5605 0 12.3853V23.5238C0 25.1806 1.34314 26.5238 3 26.5238H6C7.65686 26.5238 9 25.1806 9 23.5238V18.5238C9 17.9716 9.44772 17.5239 10 17.5239H14C14.5523 17.5239 15 17.9716 15 18.5238V23.5238C15 25.1806 16.3432 26.5238 18 26.5238H21C22.6568 26.5238 24 25.1806 24 23.5238V12.3853C24 11.5605 23.6604 10.7721 23.061 10.2054L13.374 1.04671Z" fill="#9E9E9E"/>
</svg>
