<svg width="117" height="133" viewBox="0 0 117 133" fill="none" xmlns="http://www.w3.org/2000/svg">
<rect x="48.4131" y="68.8262" width="34.0435" height="26.4783" fill="white"/>
<mask id="path-2-outside-1_122_830" maskUnits="userSpaceOnUse" x="4" y="0" width="109" height="133" fill="black">
<rect fill="white" x="4" width="109" height="133"/>
<path d="M58.5 6L106 27.8182V60.5454C106 90.8182 85.7333 119.127 58.5 126C31.2667 119.127 11 90.8182 11 60.5454V27.8182M63.7778 38.7273H53.2222V71.4545H63.7778M63.7778 82.3636H53.2222V93.2727H63.7778"/>
</mask>
<path d="M58.5 6L106 27.8182V60.5454C106 90.8182 85.7333 119.127 58.5 126C31.2667 119.127 11 90.8182 11 60.5454V27.8182M63.7778 38.7273H53.2222V71.4545H63.7778M63.7778 82.3636H53.2222V93.2727H63.7778" fill="white"/>
<path d="M106 27.8182L108.631 22.0893L112.304 23.7764V27.8182H106ZM58.5 126L60.0426 132.113L58.5 132.502L56.9574 132.113L58.5 126ZM53.2222 38.7273H46.9179V32.4229H53.2222V38.7273ZM53.2222 71.4545V77.7589H46.9179V71.4545H53.2222ZM53.2222 82.3636H46.9179V76.0593H53.2222V82.3636ZM53.2222 93.2727V99.5771H46.9179V93.2727H53.2222ZM61.1315 0.271104L108.631 22.0893L103.369 33.5471L55.8685 11.7289L61.1315 0.271104ZM112.304 27.8182V60.5454H99.6957V27.8182H112.304ZM112.304 60.5454C112.304 93.3138 90.4388 124.442 60.0426 132.113L56.9574 119.887C81.0279 113.813 99.6957 88.3226 99.6957 60.5454H112.304ZM56.9574 132.113C26.5612 124.442 4.69566 93.3138 4.69566 60.5454H17.3044C17.3044 88.3226 35.9721 113.813 60.0426 119.887L56.9574 132.113ZM4.69566 60.5454V27.8182H17.3044V60.5454H4.69566ZM63.7778 45.0316H53.2222V32.4229H63.7778V45.0316ZM59.5266 38.7273V71.4545H46.9179V38.7273H59.5266ZM53.2222 65.1502H63.7778V77.7589H53.2222V65.1502ZM63.7778 88.668H53.2222V76.0593H63.7778V88.668ZM59.5266 82.3636V93.2727H46.9179V82.3636H59.5266ZM53.2222 86.9684H63.7778V99.5771H53.2222V86.9684Z" fill="#4E773F" mask="url(#path-2-outside-1_122_830)"/>
<rect x="49" y="35" width="16" height="60" fill="white"/>
<path d="M50.3333 74.1334L72.95 51.5167C73.6528 50.8139 74.5472 50.4625 75.6333 50.4625C76.7194 50.4625 77.6139 50.8139 78.3166 51.5167C79.0194 52.2195 79.3708 53.1139 79.3708 54.2C79.3708 55.2861 79.0194 56.1806 78.3166 56.8834L53.0166 82.1834C52.25 82.95 51.3555 83.3334 50.3333 83.3334C49.3111 83.3334 48.4166 82.95 47.65 82.1834L37.6833 72.2167C36.9805 71.5139 36.6292 70.6195 36.6292 69.5334C36.6292 68.4472 36.9805 67.5528 37.6833 66.85C38.3861 66.1472 39.2805 65.7959 40.3666 65.7959C41.4528 65.7959 42.3472 66.1472 43.05 66.85L50.3333 74.1334Z" fill="#4E773F"/>
</svg>
