<svg width="23" height="25" viewBox="0 0 23 25" fill="none" xmlns="http://www.w3.org/2000/svg">
<rect x="5" y="9" width="14" height="11" fill="#1A9D8C"/>
<path fill-rule="evenodd" clip-rule="evenodd" d="M0.666626 20.7778C0.666626 21.7502 1.05293 22.6829 1.74057 23.3705C2.4282 24.0581 3.36083 24.4444 4.33329 24.4444H19C19.9724 24.4444 20.9051 24.0581 21.5927 23.3705C22.2803 22.6829 22.6666 21.7502 22.6666 20.7778V8.34533C22.6661 7.37338 22.2797 6.4414 21.5923 5.75422L16.9136 1.07311C16.226 0.385878 15.2935 -0.000116479 14.3213 2.63662e-08H4.33329C3.36083 2.63662e-08 2.4282 0.386309 1.74057 1.07394C1.05293 1.76158 0.666626 2.69421 0.666626 3.66667V20.7778ZM17.7777 11C17.7777 10.6758 17.649 10.365 17.4198 10.1358C17.1905 9.90655 16.8797 9.77778 16.5555 9.77778C16.2314 9.77778 15.9205 9.90655 15.6913 10.1358C15.4621 10.365 15.3333 10.6758 15.3333 11V18.3333C15.3333 18.6575 15.4621 18.9684 15.6913 19.1976C15.9205 19.4268 16.2314 19.5556 16.5555 19.5556C16.8797 19.5556 17.1905 19.4268 17.4198 19.1976C17.649 18.9684 17.7777 18.6575 17.7777 18.3333V11ZM12.8888 13.4444C12.8888 13.1203 12.7601 12.8094 12.5309 12.5802C12.3017 12.351 11.9908 12.2222 11.6666 12.2222C11.3425 12.2222 11.0316 12.351 10.8024 12.5802C10.5732 12.8094 10.4444 13.1203 10.4444 13.4444V18.3333C10.4444 18.6575 10.5732 18.9684 10.8024 19.1976C11.0316 19.4268 11.3425 19.5556 11.6666 19.5556C11.9908 19.5556 12.3017 19.4268 12.5309 19.1976C12.7601 18.9684 12.8888 18.6575 12.8888 18.3333V13.4444ZM7.99996 15.8828C7.99834 15.5586 7.86801 15.2484 7.63766 15.0203C7.4073 14.7923 7.09578 14.665 6.77163 14.6667C6.44747 14.6683 6.13724 14.7986 5.90917 15.029C5.68111 15.2593 5.55389 15.5708 5.55551 15.895L5.56774 18.3394C5.56936 18.6636 5.69968 18.9738 5.93004 19.2019C6.1604 19.43 6.47192 19.5572 6.79607 19.5556C7.12022 19.5539 7.43046 19.4236 7.65852 19.1933C7.88659 18.9629 8.0138 18.6514 8.01218 18.3272L7.99996 15.8828Z" fill="#1A9D8C"/>
<rect x="3" y="8" width="17" height="2.5" rx="1.25" fill="white"/>
<rect x="3" y="13" width="14" height="2.5" rx="1.25" fill="white"/>
<rect x="3" y="18" width="8" height="2.5" rx="1.25" fill="white"/>
</svg>
