<svg width="23" height="30" viewBox="0 0 23 30" fill="none" xmlns="http://www.w3.org/2000/svg">
<path d="M11.375 19.1875C10.099 19.1875 9.01432 18.7409 8.12109 17.8477C7.22786 16.9544 6.78125 15.8698 6.78125 14.5938V5.40625C6.78125 4.13021 7.22786 3.04557 8.12109 2.15234C9.01432 1.25911 10.099 0.8125 11.375 0.8125C12.651 0.8125 13.7357 1.25911 14.6289 2.15234C15.5221 3.04557 15.9688 4.13021 15.9688 5.40625V14.5938C15.9688 15.8698 15.5221 16.9544 14.6289 17.8477C13.7357 18.7409 12.651 19.1875 11.375 19.1875ZM9.84375 29.9063V25.1977C7.18958 24.8404 4.99479 23.6536 3.25937 21.6375C1.52396 19.6214 0.65625 17.2734 0.65625 14.5938H3.71875C3.71875 16.712 4.46549 18.5173 5.95897 20.0098C7.45143 21.5033 9.25677 22.25 11.375 22.25C13.4932 22.25 15.2991 21.5033 16.7926 20.0098C18.285 18.5173 19.0312 16.712 19.0312 14.5938H22.0938C22.0938 17.2734 21.226 19.6214 19.4906 21.6375C17.7552 23.6536 15.5604 24.8404 12.9062 25.1977V29.9063H9.84375Z" fill="white"/>
</svg>
