<svg width="25" height="25" viewBox="0 0 25 25" fill="none" xmlns="http://www.w3.org/2000/svg">
<path fill-rule="evenodd" clip-rule="evenodd" d="M12.5 25C15.8152 25 18.9946 23.683 21.3388 21.3388C23.683 18.9946 25 15.8152 25 12.5C25 9.18479 23.683 6.00537 21.3388 3.66117C18.9946 1.31696 15.8152 0 12.5 0C9.18479 0 6.00537 1.31696 3.66117 3.66117C1.31696 6.00537 0 9.18479 0 12.5C0 15.8152 1.31696 18.9946 3.66117 21.3388C6.00537 23.683 9.18479 25 12.5 25ZM7.8125 10.9375C8.2269 10.9375 8.62433 10.7729 8.91735 10.4799C9.21038 10.1868 9.375 9.7894 9.375 9.375C9.375 8.9606 9.21038 8.56317 8.91735 8.27015C8.62433 7.97712 8.2269 7.8125 7.8125 7.8125C7.3981 7.8125 7.00067 7.97712 6.70765 8.27015C6.41462 8.56317 6.25 8.9606 6.25 9.375C6.25 9.7894 6.41462 10.1868 6.70765 10.4799C7.00067 10.7729 7.3981 10.9375 7.8125 10.9375ZM18.75 9.375C18.75 9.7894 18.5854 10.1868 18.2924 10.4799C17.9993 10.7729 17.6019 10.9375 17.1875 10.9375C16.7731 10.9375 16.3757 10.7729 16.0826 10.4799C15.7896 10.1868 15.625 9.7894 15.625 9.375C15.625 8.9606 15.7896 8.56317 16.0826 8.27015C16.3757 7.97712 16.7731 7.8125 17.1875 7.8125C17.6019 7.8125 17.9993 7.97712 18.2924 8.27015C18.5854 8.56317 18.75 8.9606 18.75 9.375ZM6.975 18.5609C7.12012 18.7062 7.29244 18.8215 7.48212 18.9001C7.67181 18.9787 7.87513 19.0192 8.08047 19.0192C8.28581 19.0192 8.48913 18.9787 8.67881 18.9001C8.8685 18.8215 9.04082 18.7062 9.18594 18.5609C10.065 17.6822 11.257 17.1885 12.5 17.1885C13.743 17.1885 14.935 17.6822 15.8141 18.5609C16.1073 18.8541 16.5049 19.0188 16.9195 19.0188C17.3342 19.0188 17.7318 18.8541 18.025 18.5609C18.3182 18.2677 18.4829 17.8701 18.4829 17.4555C18.4829 17.0408 18.3182 16.6432 18.025 16.35C17.2995 15.6243 16.4382 15.0487 15.4902 14.6559C14.5422 14.2632 13.5261 14.061 12.5 14.061C11.4739 14.061 10.4578 14.2632 9.50981 14.6559C8.56182 15.0487 7.70049 15.6243 6.975 16.35C6.82973 16.4951 6.71448 16.6674 6.63584 16.8571C6.55721 17.0468 6.51674 17.2501 6.51674 17.4555C6.51674 17.6608 6.55721 17.8641 6.63584 18.0538C6.71448 18.2435 6.82973 18.4158 6.975 18.5609Z" fill="#FF5757"/>
</svg>
