<svg width="25" height="25" viewBox="0 0 25 25" fill="none" xmlns="http://www.w3.org/2000/svg">
<path d="M12.5 25C19.3925 25 25 19.3925 25 12.5C25 5.6075 19.3925 0 12.5 0C5.6075 0 0 5.6075 0 12.5C0 19.3925 5.6075 25 12.5 25ZM16.8662 8.75C17.1155 8.74363 17.3635 8.78724 17.5956 8.87823C17.8277 8.96923 18.0392 9.10578 18.2177 9.27983C18.3962 9.45389 18.538 9.66192 18.6349 9.89166C18.7317 10.1214 18.7815 10.3682 18.7814 10.6175C18.7813 10.8668 18.7313 11.1136 18.6344 11.3433C18.5374 11.5729 18.3954 11.7809 18.2168 11.9548C18.0382 12.1288 17.8266 12.2652 17.5944 12.356C17.3622 12.4468 17.1142 12.4903 16.865 12.4838C16.3782 12.471 15.9157 12.2686 15.576 11.9198C15.2363 11.5709 15.0463 11.1032 15.0464 10.6163C15.0466 10.1293 15.2369 9.66173 15.5769 9.31311C15.9168 8.96449 16.3795 8.76243 16.8662 8.75ZM11.49 17.3988C12.1567 17.5325 12.8433 17.5325 13.51 17.3988C13.8262 17.3337 14.1412 17.235 14.4475 17.1075C14.74 16.9825 15.0275 16.8275 15.2963 16.6475C15.5563 16.47 15.805 16.265 16.035 16.0363C16.2638 15.8088 16.4688 15.56 16.6462 15.2963L18.7188 16.6925C18.1799 17.4911 17.4929 18.1789 16.695 18.7188C15.882 19.2673 14.9694 19.6513 14.0087 19.8487C13.0128 20.0488 11.987 20.0484 10.9913 19.8475C10.0303 19.6529 9.11762 19.2692 8.30625 18.7188C7.50831 18.1776 6.82065 17.4895 6.28 16.6912L8.3525 15.295C8.53125 15.5588 8.73625 15.8075 8.9625 16.0325C9.65266 16.7261 10.5317 17.2013 11.49 17.3988ZM8.125 8.75C8.37131 8.75008 8.61519 8.79868 8.84272 8.89301C9.07025 8.98735 9.27697 9.12557 9.45108 9.2998C9.62519 9.47402 9.76328 9.68084 9.85747 9.90843C9.95165 10.136 10.0001 10.3799 10 10.6263C9.99992 10.8726 9.95132 11.1164 9.85699 11.344C9.76265 11.5715 9.62443 11.7782 9.4502 11.9523C9.27598 12.1264 9.06916 12.2645 8.84157 12.3587C8.61398 12.4529 8.37006 12.5013 8.12375 12.5013C7.6263 12.5011 7.1493 12.3033 6.79767 11.9515C6.44604 11.5996 6.24858 11.1224 6.24875 10.625C6.24892 10.1276 6.44668 9.65055 6.79855 9.29892C7.15041 8.94728 7.62755 8.74983 8.125 8.75Z" fill="#097BFD"/>
</svg>
