<svg width="26" height="26" viewBox="0 0 26 26" fill="none" xmlns="http://www.w3.org/2000/svg">
<path fill-rule="evenodd" clip-rule="evenodd" d="M13 0C20.1682 0 26 5.8318 26 13C26 20.1682 20.1682 26 13 26C5.8318 26 0 20.1682 0 13C0 5.8318 5.8318 0 13 0ZM21.112 19.5C20.1389 20.7168 18.9045 21.6991 17.5003 22.3741C16.0961 23.0492 14.558 23.3997 13 23.3997C11.442 23.3997 9.90387 23.0492 8.49966 22.3741C7.09545 21.6991 5.86109 20.7168 4.888 19.5C5.86109 18.2832 7.09545 17.3009 8.49966 16.6259C9.90387 15.9508 11.442 15.6003 13 15.6003C14.558 15.6003 16.0961 15.9508 17.5003 16.6259C18.9045 17.3009 20.1389 18.2832 21.112 19.5ZM13 13C13.5122 13 14.0193 12.8991 14.4925 12.7031C14.9656 12.5071 15.3956 12.2199 15.7577 11.8577C16.1199 11.4956 16.4071 11.0656 16.6031 10.5925C16.7991 10.1193 16.9 9.61215 16.9 9.1C16.9 8.58784 16.7991 8.0807 16.6031 7.60753C16.4071 7.13436 16.1199 6.70443 15.7577 6.34228C15.3956 5.98013 14.9656 5.69286 14.4925 5.49687C14.0193 5.30088 13.5122 5.2 13 5.2C11.9657 5.2 10.9737 5.61089 10.2423 6.34228C9.51089 7.07368 9.1 8.06566 9.1 9.1C9.1 10.1343 9.51089 11.1263 10.2423 11.8577C10.9737 12.5891 11.9657 13 13 13Z" fill="#A4A4A4"/>
</svg>
