<svg width="40" height="41" viewBox="0 0 40 41" fill="none" xmlns="http://www.w3.org/2000/svg">
<path d="M5.9 25.0912L5.9989 24.9583C6.05301 24.8857 6.09429 24.7724 6.11909 24.5582C6.1313 24.4528 6.1382 24.3377 6.14551 24.2018C6.14618 24.1895 6.14684 24.177 6.14752 24.1643C6.15403 24.0421 6.16132 23.9054 6.17399 23.7652C6.23213 23.1215 6.40888 22.3472 7.18752 21.6414L7.95014 22.2723C7.46234 23.0718 7.20416 23.9903 7.20393 24.9269L5.9 25.0912ZM5.9 25.0912V25.2569M5.9 25.0912V25.2569M5.9 25.2569V28.9238C5.9 30.1263 6.14774 31.2321 6.71697 32.2085C7.28666 33.1857 8.15961 34.0009 9.35891 34.6507C11.7375 35.9395 15.4412 36.6 20.8 36.6C25.5288 36.6 28.8497 36.2587 30.9891 35.1211C32.0811 34.5404 32.8721 33.75 33.3821 32.7026C33.8866 31.6664 34.0997 30.4121 34.1 28.9239V28.9238V25.7V25.531L33.9974 25.3966C33.9095 25.2814 33.8446 25.1538 33.7952 25.012C33.7956 24.9838 33.7958 24.9557 33.7958 24.9275V24.9274C33.7956 24.3451 33.7121 23.7686 33.55 23.215C33.4732 22.6765 33.3041 22.0897 32.8162 21.6499L32.0542 22.2809C32.272 22.6394 32.4438 23.0217 32.567 23.4187C32.5838 23.5478 32.5974 23.6878 32.61 23.8397C32.6139 23.8866 32.6176 23.9349 32.6215 23.9844C32.6487 24.3329 32.6805 24.7415 32.7914 25.1432C32.6786 27.8748 30.4329 30.0525 27.6846 30.0525C24.863 30.0525 22.5727 27.7593 22.5727 24.9275C22.5727 24.8444 22.5781 24.7657 22.5849 24.6678C22.5866 24.6421 22.5885 24.6151 22.5904 24.5863L22.6239 24.0728L22.1096 24.0541C20.6919 24.0026 19.2723 24.0515 17.8615 24.2003L17.3951 24.2494M5.9 25.2569L17.3951 24.2494M17.3951 24.2494L17.4144 24.718M17.3951 24.2494L17.4144 24.718M17.4144 24.718C17.4171 24.7851 17.4199 24.8185 17.4221 24.8441C17.4243 24.8705 17.4258 24.8885 17.4258 24.9269C17.4258 27.7587 15.1355 30.0519 12.3139 30.0519C9.49381 30.0519 7.20399 27.7589 7.20393 24.927L17.4144 24.718ZM28.092 7.78512L28.8568 8.029L28.8565 8.04171L29.1862 8.16811C33.9404 9.99093 36.7039 13.1798 37.7555 16.3959C38.8105 19.6223 38.1485 22.8664 36.0699 24.8994L35.9194 25.0467L35.9196 25.2573L35.9227 28.9238C35.9227 28.9239 35.9227 28.924 35.9227 28.9242C35.9226 32.0285 34.5419 34.454 31.9231 36.1267C29.2778 37.8164 25.3442 38.75 20.2571 38.75C14.557 38.75 10.4926 37.4684 7.868 35.6066C5.25074 33.7499 4.05422 31.3129 4.05394 28.9237L4.05392 28.921L4.0333 25.2016L4.03216 24.9957L3.88636 24.8503C1.83748 22.8073 1.19341 19.5704 2.25383 16.3566C3.31082 13.1532 6.06721 9.98166 10.8017 8.16623L11.1227 8.04315V8.03L11.8975 7.78331C12.5578 7.57309 16.5939 6.62188 19.9946 6.62188C23.1248 6.62188 25.8094 7.05721 28.092 7.78512ZM28.8494 7.24591L28.623 6.98271C26.9163 4.99839 23.6597 3.715 19.9946 3.715C16.3306 3.715 13.0749 4.99779 11.367 6.98056L11.1392 7.24496C11.2884 5.99512 12.1651 4.8123 13.6292 3.89487C15.2351 2.88859 17.4845 2.25 19.9946 2.25C22.5047 2.25 24.7539 2.88859 26.3596 3.89485C27.8239 4.8125 28.7006 5.99569 28.8494 7.24591ZM14.1252 17.3588L14.125 17.3589C12.9127 17.8198 11.745 18.3902 10.6364 19.0632L11.0224 19.9743C11.4397 19.8651 11.8702 19.8025 12.3139 19.8025C14.4677 19.8025 16.3098 21.141 17.0617 23.0362L17.2025 23.3913L17.582 23.3488C19.2174 23.1657 20.8649 23.1147 22.5085 23.1963L22.8549 23.2134L22.9924 22.895C23.7782 21.0743 25.5833 19.8029 27.683 19.8025C28.1142 19.8042 28.5434 19.8606 28.9604 19.9704L29.3469 19.0593C28.2401 18.3883 27.0746 17.8192 25.8648 17.3589L25.8646 17.3588C23.7177 16.5436 21.9152 15.7576 20.4072 15.0051L20.1914 14.8974L19.9727 14.9993C18.7157 15.5851 15.7838 16.7291 14.1252 17.3588ZM27.6833 29.1775C30.0262 29.1775 31.9246 27.2732 31.9246 24.9275C31.9246 22.5818 30.0262 20.6775 27.6833 20.6775C25.3403 20.6775 23.4427 22.5819 23.4427 24.9275C23.4427 27.2731 25.3403 29.1775 27.6833 29.1775ZM16.5552 24.9275C16.5552 22.5819 14.6575 20.6775 12.3139 20.6775C9.97154 20.6775 8.07393 22.582 8.07393 24.9275C8.07393 27.273 9.97154 29.1775 12.3139 29.1775C14.6568 29.1775 16.5552 27.2732 16.5552 24.9275Z" fill="white" stroke="white"/>
<path d="M24.0003 32.7745C25.8748 30.2752 14.1257 30.2752 16.0003 32.7745C17.0481 34.1717 18.2538 34.7745 20.0003 34.7745C21.7467 34.7745 22.9524 34.1717 24.0003 32.7745Z" fill="white"/>
</svg>
