<svg width="23" height="17" viewBox="0 0 23 17" fill="none" xmlns="http://www.w3.org/2000/svg">
<path d="M9.01506 11.7166L3.5461 5.77779L3.53913 5.77021L3.53185 5.76293C3.23553 5.46661 2.83362 5.30013 2.41455 5.30013C1.99548 5.30013 1.59357 5.46661 1.29725 5.76293C1.00092 6.05926 0.834443 6.46117 0.834443 6.88024C0.834443 7.08774 0.875314 7.29321 0.954722 7.48492C1.03285 7.67354 1.14679 7.84521 1.2902 7.99045L7.87545 15.0755L7.88167 15.0822L7.88813 15.0886C8.50589 15.7064 9.50498 15.7064 10.1227 15.0886L21.5844 3.62697C21.8807 3.33065 22.0472 2.92874 22.0472 2.50967C22.0472 2.0906 21.8807 1.6887 21.5844 1.39237C21.2881 1.09604 20.8862 0.929565 20.4671 0.929565C20.0481 0.929565 19.6463 1.09597 19.35 1.39219C19.3499 1.39225 19.3499 1.39231 19.3498 1.39237L9.01506 11.7166Z" fill="#35A840" stroke="#35A840"/>
</svg>
