<svg width="123" height="131" viewBox="0 0 123 131" fill="none" xmlns="http://www.w3.org/2000/svg">
<path d="M17.2721 15.9185C12.6985 15.9185 8.31212 17.7354 5.07805 20.9695C1.84398 24.2036 0.0270996 28.5899 0.0270996 33.1636V94.1844C0.0270996 98.7581 1.84398 103.144 5.07805 106.378C8.31212 109.613 12.6985 111.429 17.2721 111.429H78.293C82.8666 111.429 87.253 109.613 90.487 106.378C93.7211 103.144 95.538 98.7581 95.538 94.1844V33.1636C95.538 28.5899 93.7211 24.2036 90.487 20.9695C87.253 17.7354 82.8666 15.9185 78.293 15.9185H17.2721ZM15.9456 43.7759C15.9456 38.6501 20.1056 34.4901 25.2314 34.4901H70.3337C75.4595 34.4901 79.6195 38.6501 79.6195 43.7759V51.7351C79.6195 54.1979 78.6412 56.5597 76.8997 58.3012C75.1583 60.0426 72.7965 61.0209 70.3337 61.0209H25.2314C22.7686 61.0209 20.4067 60.0426 18.6653 58.3012C16.9239 56.5597 15.9456 54.1979 15.9456 51.7351V43.7759ZM25.2314 42.4493C24.8795 42.4493 24.5421 42.5891 24.2934 42.8379C24.0446 43.0867 23.9048 43.4241 23.9048 43.7759V51.7351C23.9048 52.4674 24.4991 53.0617 25.2314 53.0617H70.3337C70.6855 53.0617 71.0229 52.9219 71.2717 52.6731C71.5205 52.4244 71.6603 52.0869 71.6603 51.7351V43.7759C71.6603 43.4241 71.5205 43.0867 71.2717 42.8379C71.0229 42.5891 70.6855 42.4493 70.3337 42.4493H25.2314ZM19.9252 68.9801H43.8029C44.8584 68.9801 45.8706 69.3994 46.6169 70.1457C47.3633 70.8921 47.7825 71.9043 47.7825 72.9598C47.7825 74.0152 47.3633 75.0275 46.6169 75.7738C45.8706 76.5201 44.8584 76.9394 43.8029 76.9394H19.9252C18.8697 76.9394 17.8575 76.5201 17.1112 75.7738C16.3649 75.0275 15.9456 74.0152 15.9456 72.9598C15.9456 71.9043 16.3649 70.8921 17.1112 70.1457C17.8575 69.3994 18.8697 68.9801 19.9252 68.9801ZM15.9456 88.8782C15.9456 87.8228 16.3649 86.8105 17.1112 86.0642C17.8575 85.3179 18.8697 84.8986 19.9252 84.8986H43.8029C44.8584 84.8986 45.8706 85.3179 46.6169 86.0642C47.3633 86.8105 47.7825 87.8228 47.7825 88.8782C47.7825 89.9337 47.3633 90.9459 46.6169 91.6923C45.8706 92.4386 44.8584 92.8579 43.8029 92.8579H19.9252C18.8697 92.8579 17.8575 92.4386 17.1112 91.6923C16.3649 90.9459 15.9456 89.9337 15.9456 88.8782ZM65.0275 68.9801H70.3337C75.4595 68.9801 79.6195 73.1402 79.6195 78.2659V83.5721C79.6195 86.0348 78.6412 88.3967 76.8997 90.1381C75.1583 91.8795 72.7965 92.8579 70.3337 92.8579H65.0275C62.5648 92.8579 60.2029 91.8795 58.4615 90.1381C56.7201 88.3967 55.7418 86.0348 55.7418 83.5721V78.2659C55.7418 73.1402 59.9018 68.9801 65.0275 68.9801ZM63.701 78.2659C63.701 77.9141 63.8408 77.5767 64.0895 77.3279C64.3383 77.0791 64.6757 76.9394 65.0275 76.9394H70.3337C70.6855 76.9394 71.0229 77.0791 71.2717 77.3279C71.5205 77.5767 71.6603 77.9141 71.6603 78.2659V83.5721C71.6603 83.9239 71.5205 84.2613 71.2717 84.5101C71.0229 84.7589 70.6855 84.8986 70.3337 84.8986H65.0275C64.6757 84.8986 64.3383 84.7589 64.0895 84.5101C63.8408 84.2613 63.701 83.9239 63.701 83.5721V78.2659Z" fill="white"/>
<rect x="48.4131" y="66.8262" width="34.0435" height="26.4783" fill="white"/>
<mask id="path-3-outside-1_122_705" maskUnits="userSpaceOnUse" x="59.0652" y="54.5218" width="64" height="76" fill="black">
<rect fill="white" x="59.0652" y="54.5218" width="64" height="76"/>
<path d="M91.2826 60.5218L66.0652 71.9843V89.1779C66.0652 105.082 76.8246 119.955 91.2826 123.565C105.741 119.955 116.5 105.082 116.5 89.1779V71.9843M88.4806 77.7155H94.0845V94.9092H88.4806M88.4806 100.64H94.0845V106.372H88.4806"/>
</mask>
<path d="M91.2826 60.5218L66.0652 71.9843V89.1779C66.0652 105.082 76.8246 119.955 91.2826 123.565C105.741 119.955 116.5 105.082 116.5 89.1779V71.9843M88.4806 77.7155H94.0845V94.9092H88.4806M88.4806 100.64H94.0845V106.372H88.4806" fill="white"/>
<path d="M66.0652 71.9843L63.4564 66.245L59.7608 67.9248V71.9843H66.0652ZM91.2826 123.565L89.7551 129.682L91.2826 130.063L92.8101 129.682L91.2826 123.565ZM94.0845 77.7155H100.389V71.4111H94.0845V77.7155ZM94.0845 94.9092V101.214H100.389V94.9092H94.0845ZM94.0845 100.64H100.389V94.3361H94.0845V100.64ZM94.0845 106.372V112.676H100.389V106.372H94.0845ZM88.6738 54.7826L63.4564 66.245L68.6739 77.7235L93.8913 66.2611L88.6738 54.7826ZM59.7608 71.9843V89.1779H72.3695V71.9843H59.7608ZM59.7608 89.1779C59.7608 107.625 72.1633 125.289 89.7551 129.682L92.8101 117.449C81.4859 114.621 72.3695 102.539 72.3695 89.1779H59.7608ZM92.8101 129.682C110.402 125.289 122.804 107.625 122.804 89.1779H110.196C110.196 102.539 101.079 114.621 89.7551 117.449L92.8101 129.682ZM122.804 89.1779V71.9843H110.196V89.1779H122.804ZM88.4806 84.0198H94.0845V71.4111H88.4806V84.0198ZM87.7802 77.7155V94.9092H100.389V77.7155H87.7802ZM94.0845 88.6048H88.4806V101.214H94.0845V88.6048ZM88.4806 106.945H94.0845V94.3361H88.4806V106.945ZM87.7802 100.64V106.372H100.389V100.64H87.7802ZM94.0845 100.067H88.4806V112.676H94.0845V100.067Z" fill="#47673B" mask="url(#path-3-outside-1_122_705)"/>
<mask id="path-5-outside-2_122_705" maskUnits="userSpaceOnUse" x="59.5" y="54.5218" width="64" height="76" fill="black">
<rect fill="white" x="59.5" y="54.5218" width="64" height="76"/>
<path d="M91.2826 60.5218L116.5 71.9843V89.1779C116.5 105.082 105.741 119.955 91.2826 123.565C76.8246 119.955 66.0652 105.082 66.0652 89.1779V71.9843M94.0845 77.7155H88.4807V94.9092H94.0845M94.0845 100.64H88.4807V106.372H94.0845"/>
</mask>
<path d="M91.2826 60.5218L116.5 71.9843V89.1779C116.5 105.082 105.741 119.955 91.2826 123.565C76.8246 119.955 66.0652 105.082 66.0652 89.1779V71.9843M94.0845 77.7155H88.4807V94.9092H94.0845M94.0845 100.64H88.4807V106.372H94.0845" fill="white"/>
<path d="M116.5 71.9843L119.109 66.245L122.804 67.9248V71.9843H116.5ZM91.2826 123.565L92.8101 129.682L91.2826 130.063L89.7551 129.682L91.2826 123.565ZM88.4807 77.7155H82.1763V71.4111H88.4807V77.7155ZM88.4807 94.9092V101.214H82.1763V94.9092H88.4807ZM88.4807 100.64H82.1763V94.3361H88.4807V100.64ZM88.4807 106.372V112.676H82.1763V106.372H88.4807ZM93.8914 54.7826L119.109 66.245L113.891 77.7235L88.6739 66.2611L93.8914 54.7826ZM122.804 71.9843V89.1779H110.196V71.9843H122.804ZM122.804 89.1779C122.804 107.625 110.402 125.289 92.8101 129.682L89.7551 117.449C101.079 114.621 110.196 102.539 110.196 89.1779H122.804ZM89.7551 129.682C72.1633 125.289 59.7609 107.625 59.7609 89.1779H72.3696C72.3696 102.539 81.4859 114.621 92.8101 117.449L89.7551 129.682ZM59.7609 89.1779V71.9843H72.3696V89.1779H59.7609ZM94.0845 84.0198H88.4807V71.4111H94.0845V84.0198ZM94.785 77.7155V94.9092H82.1763V77.7155H94.785ZM88.4807 88.6048H94.0845V101.214H88.4807V88.6048ZM94.0845 106.945H88.4807V94.3361H94.0845V106.945ZM94.785 100.64V106.372H82.1763V100.64H94.785ZM88.4807 100.067H94.0845V112.676H88.4807V100.067Z" fill="#47673B" mask="url(#path-5-outside-2_122_705)"/>
<path d="M81.0693 61.7827L91.1563 56.7392L104.522 63.0435" stroke="#47673B" stroke-width="6.30435"/>
</svg>
