<svg width="26" height="27" viewBox="0 0 26 27" fill="none" xmlns="http://www.w3.org/2000/svg">
<path d="M4.22959 3.42017C3.3121 3.42017 2.43219 3.78464 1.78343 4.4334C1.13467 5.08216 0.770203 5.96207 0.770203 6.87955V19.1205C0.770203 20.038 1.13467 20.9179 1.78343 21.5666C2.43219 22.2154 3.3121 22.5799 4.22959 22.5799H16.4705C17.388 22.5799 18.2679 22.2154 18.9167 21.5666C19.5654 20.9179 19.9299 20.038 19.9299 19.1205V6.87955C19.9299 5.96207 19.5654 5.08216 18.9167 4.4334C18.2679 3.78464 17.388 3.42017 16.4705 3.42017H4.22959ZM3.96348 9.00841C3.96348 7.98017 4.79799 7.14566 5.82623 7.14566H14.8739C15.9021 7.14566 16.7366 7.98017 16.7366 9.00841V10.605C16.7366 11.0991 16.5404 11.5729 16.191 11.9222C15.8417 12.2715 15.3679 12.4678 14.8739 12.4678H5.82623C5.3322 12.4678 4.8584 12.2715 4.50907 11.9222C4.15974 11.5729 3.96348 11.0991 3.96348 10.605V9.00841ZM5.82623 8.7423C5.75566 8.7423 5.68797 8.77034 5.63806 8.82024C5.58816 8.87015 5.56012 8.93783 5.56012 9.00841V10.605C5.56012 10.7519 5.67934 10.8712 5.82623 10.8712H14.8739C14.9444 10.8712 15.0121 10.8431 15.062 10.7932C15.1119 10.7433 15.14 10.6756 15.14 10.605V9.00841C15.14 8.93783 15.1119 8.87015 15.062 8.82024C15.0121 8.77034 14.9444 8.7423 14.8739 8.7423H5.82623ZM4.7618 14.0644H9.55173C9.76345 14.0644 9.96651 14.1485 10.1162 14.2983C10.2659 14.448 10.35 14.651 10.35 14.8628C10.35 15.0745 10.2659 15.2775 10.1162 15.4273C9.96651 15.577 9.76345 15.6611 9.55173 15.6611H4.7618C4.55008 15.6611 4.34702 15.577 4.19731 15.4273C4.04759 15.2775 3.96348 15.0745 3.96348 14.8628C3.96348 14.651 4.04759 14.448 4.19731 14.2983C4.34702 14.1485 4.55008 14.0644 4.7618 14.0644ZM3.96348 18.056C3.96348 17.8443 4.04759 17.6413 4.19731 17.4915C4.34702 17.3418 4.55008 17.2577 4.7618 17.2577H9.55173C9.76345 17.2577 9.96651 17.3418 10.1162 17.4915C10.2659 17.6413 10.35 17.8443 10.35 18.056C10.35 18.2678 10.2659 18.4708 10.1162 18.6205C9.96651 18.7703 9.76345 18.8544 9.55173 18.8544H4.7618C4.55008 18.8544 4.34702 18.7703 4.19731 18.6205C4.04759 18.4708 3.96348 18.2678 3.96348 18.056ZM13.8094 14.0644H14.8739C15.9021 14.0644 16.7366 14.8989 16.7366 15.9272V16.9916C16.7366 17.4856 16.5404 17.9594 16.191 18.3088C15.8417 18.6581 15.3679 18.8544 14.8739 18.8544H13.8094C13.3154 18.8544 12.8416 18.6581 12.4923 18.3088C12.1429 17.9594 11.9467 17.4856 11.9467 16.9916V15.9272C11.9467 14.8989 12.7812 14.0644 13.8094 14.0644ZM13.5433 15.9272C13.5433 15.8566 13.5714 15.7889 13.6213 15.739C13.6712 15.6891 13.7389 15.6611 13.8094 15.6611H14.8739C14.9444 15.6611 15.0121 15.6891 15.062 15.739C15.1119 15.7889 15.14 15.8566 15.14 15.9272V16.9916C15.14 17.0622 15.1119 17.1299 15.062 17.1798C15.0121 17.2297 14.9444 17.2577 14.8739 17.2577H13.8094C13.7389 17.2577 13.6712 17.2297 13.6213 17.1798C13.5714 17.1299 13.5433 17.0622 13.5433 16.9916V15.9272Z" fill="white"/>
<rect x="10.4766" y="13.6323" width="6.8292" height="5.3116" fill="white"/>
<mask id="path-3-outside-1_122_3208" maskUnits="userSpaceOnUse" x="12.0176" y="10.3677" width="14" height="16" fill="black">
<rect fill="white" x="12.0176" y="10.3677" width="14" height="16"/>
<path d="M19.0763 12.3677L14.0176 14.6671V18.1162C14.0176 21.3066 16.176 24.29 19.0763 25.0143C21.9766 24.29 24.1349 21.3066 24.1349 18.1162V14.6671M18.5142 15.8168H19.6383V19.2659H18.5142M18.5142 20.4155H19.6383V21.5652H18.5142"/>
</mask>
<path d="M19.0763 12.3677L14.0176 14.6671V18.1162C14.0176 21.3066 16.176 24.29 19.0763 25.0143C21.9766 24.29 24.1349 21.3066 24.1349 18.1162V14.6671M18.5142 15.8168H19.6383V19.2659H18.5142M18.5142 20.4155H19.6383V21.5652H18.5142" fill="white"/>
<path d="M14.0176 14.6671L13.4943 13.5158L12.7529 13.8527V14.6671H14.0176ZM19.0763 25.0143L18.7699 26.2413L19.0763 26.3178L19.3827 26.2413L19.0763 25.0143ZM19.6383 15.8168H20.903V14.5521H19.6383V15.8168ZM19.6383 19.2659V20.5305H20.903V19.2659H19.6383ZM19.6383 20.4155H20.903V19.1509H19.6383V20.4155ZM19.6383 21.5652V22.8299H20.903V21.5652H19.6383ZM18.5529 11.2164L13.4943 13.5158L14.5409 15.8184L19.5996 13.519L18.5529 11.2164ZM12.7529 14.6671V18.1162H15.2823V14.6671H12.7529ZM12.7529 18.1162C12.7529 21.8166 15.2409 25.36 18.7699 26.2413L19.3827 23.7874C17.111 23.22 15.2823 20.7965 15.2823 18.1162H12.7529ZM19.3827 26.2413C22.9116 25.36 25.3996 21.8166 25.3996 18.1162H22.8703C22.8703 20.7965 21.0415 23.22 18.7699 23.7874L19.3827 26.2413ZM25.3996 18.1162V14.6671H22.8703V18.1162H25.3996ZM18.5142 17.0814H19.6383V14.5521H18.5142V17.0814ZM18.3737 15.8168V19.2659H20.903V15.8168H18.3737ZM19.6383 18.0012H18.5142V20.5305H19.6383V18.0012ZM18.5142 21.6802H19.6383V19.1509H18.5142V21.6802ZM18.3737 20.4155V21.5652H20.903V20.4155H18.3737ZM19.6383 20.3006H18.5142V22.8299H19.6383V20.3006Z" fill="#47673B" mask="url(#path-3-outside-1_122_3208)"/>
<mask id="path-5-outside-2_122_3208" maskUnits="userSpaceOnUse" x="12.1349" y="10.3677" width="14" height="16" fill="black">
<rect fill="white" x="12.1349" y="10.3677" width="14" height="16"/>
<path d="M19.0763 12.3677L24.1349 14.6671V18.1162C24.1349 21.3066 21.9766 24.29 19.0763 25.0143C16.176 24.29 14.0176 21.3066 14.0176 18.1162V14.6671M19.6384 15.8168H18.5142V19.2659H19.6384M19.6384 20.4155H18.5142V21.5652H19.6384"/>
</mask>
<path d="M19.0763 12.3677L24.1349 14.6671V18.1162C24.1349 21.3066 21.9766 24.29 19.0763 25.0143C16.176 24.29 14.0176 21.3066 14.0176 18.1162V14.6671M19.6384 15.8168H18.5142V19.2659H19.6384M19.6384 20.4155H18.5142V21.5652H19.6384" fill="white"/>
<path d="M24.1349 14.6671L24.6583 13.5158L25.3996 13.8527V14.6671H24.1349ZM19.0763 25.0143L19.3827 26.2413L19.0763 26.3178L18.7699 26.2413L19.0763 25.0143ZM18.5142 15.8168H17.2495V14.5521H18.5142V15.8168ZM18.5142 19.2659V20.5305H17.2495V19.2659H18.5142ZM18.5142 20.4155H17.2495V19.1509H18.5142V20.4155ZM18.5142 21.5652V22.8299H17.2495V21.5652H18.5142ZM19.5996 11.2164L24.6583 13.5158L23.6116 15.8184L18.553 13.519L19.5996 11.2164ZM25.3996 14.6671V18.1162H22.8703V14.6671H25.3996ZM25.3996 18.1162C25.3996 21.8166 22.9117 25.36 19.3827 26.2413L18.7699 23.7874C21.0415 23.22 22.8703 20.7965 22.8703 18.1162H25.3996ZM18.7699 26.2413C15.2409 25.36 12.753 21.8166 12.753 18.1162H15.2823C15.2823 20.7965 17.1111 23.22 19.3827 23.7874L18.7699 26.2413ZM12.753 18.1162V14.6671H15.2823V18.1162H12.753ZM19.6384 17.0814H18.5142V14.5521H19.6384V17.0814ZM19.7789 15.8168V19.2659H17.2495V15.8168H19.7789ZM18.5142 18.0012H19.6384V20.5305H18.5142V18.0012ZM19.6384 21.6802H18.5142V19.1509H19.6384V21.6802ZM19.7789 20.4155V21.5652H17.2495V20.4155H19.7789ZM18.5142 20.3006H19.6384V22.8299H18.5142V20.3006Z" fill="#47673B" mask="url(#path-5-outside-2_122_3208)"/>
<path d="M17.0275 12.6206L19.0509 11.6089L21.732 12.8736" stroke="#47673B" stroke-width="1.26467"/>
</svg>
