<svg width="25" height="25" viewBox="0 0 25 25" fill="none" xmlns="http://www.w3.org/2000/svg">
<path d="M12.5 0C5.6075 0 0 5.6075 0 12.5C0 19.3925 5.6075 25 12.5 25C19.3925 25 25 19.3925 25 12.5C25 5.6075 19.3925 0 12.5 0ZM6.25 10.625C6.25017 10.1276 6.44793 9.65055 6.7998 9.29892C6.97403 9.12481 7.18084 8.98672 7.40843 8.89253C7.63602 8.79835 7.87994 8.74992 8.12625 8.75C8.37256 8.75008 8.61644 8.79868 8.84397 8.89301C9.0715 8.98735 9.27822 9.12557 9.45233 9.2998C9.62644 9.47403 9.76453 9.68084 9.85872 9.90843C9.9529 10.136 10.0013 10.3799 10.0013 10.6263C10.0011 11.1237 9.80332 11.6007 9.45145 11.9523C9.09958 12.304 8.62245 12.5014 8.125 12.5013C7.62755 12.5011 7.15055 12.3033 6.79892 11.9515C6.44729 11.5996 6.24983 11.1224 6.25 10.625ZM7.655 18.74L7.345 16.26L17.345 15.01L17.655 17.49L7.655 18.74ZM16.8663 12.4825C16.617 12.4889 16.369 12.4453 16.1369 12.3543C15.9048 12.2633 15.6933 12.1267 15.5148 11.9527C15.3363 11.7786 15.1945 11.5706 15.0976 11.3408C15.0008 11.1111 14.951 10.8643 14.9511 10.615C14.9512 10.3657 15.0012 10.1189 15.0981 9.88923C15.1951 9.65955 15.3371 9.45161 15.5157 9.27768C15.6943 9.10375 15.9059 8.96734 16.1381 8.8765C16.3703 8.78565 16.6183 8.74222 16.8675 8.74875C17.3543 8.76151 17.8168 8.96388 18.1565 9.31273C18.4962 9.66157 18.6862 10.1293 18.6861 10.6162C18.6859 11.1032 18.4956 11.5708 18.1556 11.9194C17.8157 12.268 17.353 12.4701 16.8663 12.4825Z" fill="#FFBC57"/>
</svg>
