<svg width="5" height="23" viewBox="0 0 5 23" fill="none" xmlns="http://www.w3.org/2000/svg">
<path d="M4.35547 13.3505C4.30841 14.3252 3.50443 15.0913 2.52857 15.0913C1.55271 15.0913 0.748729 14.3252 0.701671 13.3505L0.176318 2.46855C0.11145 1.1249 1.18335 0 2.52857 0C3.87379 0 4.94569 1.1249 4.88082 2.46855L4.35547 13.3505ZM0 20.3741C0 19.4061 0.242857 18.7264 0.728571 18.3351C1.22381 17.9438 1.81905 17.7482 2.51429 17.7482C3.19048 17.7482 3.77143 17.9438 4.25714 18.3351C4.75238 18.7264 5 19.4061 5 20.3741C5 21.3009 4.75238 21.9702 4.25714 22.3821C3.77143 22.794 3.19048 23 2.51429 23C1.81905 23 1.22381 22.794 0.728571 22.3821C0.242857 21.9702 0 21.3009 0 20.3741Z" fill="#FFBC57"/>
</svg>
